<?xml version="1.0" encoding="utf-8"?>
<!-- Generator: Adobe Illustrator 27.4.0, SVG Export Plug-In . SVG Version: 6.00 Build 0)  -->
<svg version="1.1" id="Capa_1" xmlns="http://www.w3.org/2000/svg" xmlns:xlink="http://www.w3.org/1999/xlink" x="0px" y="0px"
	 viewBox="0 0 512 512" style="enable-background:new 0 0 512 512;" xml:space="preserve">
<style type="text/css">
	.st0{fill:#5932E6;}
	.st1{fill:#FFFFFF;stroke:#FFFFFF;stroke-width:20;stroke-linecap:round;stroke-linejoin:round;stroke-miterlimit:10;}
</style>
<path class="st0" d="M405.3,0H106.7C47.8,0.1,0.1,47.8,0,106.7v298.7C0.1,464.2,47.8,511.9,106.7,512h298.7
	c58.9-0.1,106.6-47.8,106.7-106.7V106.7C511.9,47.8,464.2,0.1,405.3,0z"/>
<path class="st1" d="M168.9,369.8c16.6,16.7,43.6,16.7,60.3,0l197.5-197.4c8.3-8.4,8.3-21.9-0.1-30.1c-8.3-8.4-21.9-8.4-30.2-0.1
	L199,339.6l-83.5-83.5c-8.3-8.3-21.9-8.3-30.2,0c-8.3,8.3-8.3,21.9,0,30.2L168.9,369.8z"/>
</svg>
