<?xml version="1.0" encoding="utf-8"?>
<!-- Generator: Adobe Illustrator 24.3.0, SVG Export Plug-In . SVG Version: 6.00 Build 0)  -->
<svg version="1.1" xmlns="http://www.w3.org/2000/svg" xmlns:xlink="http://www.w3.org/1999/xlink" x="0px" y="0px"
	 viewBox="0 0 130 54" style="enable-background:new 0 0 130 54;" xml:space="preserve">
<style type="text/css">
	.st0{fill:#6E6E8E;}
	.st1{fill:#9682FF;}
	.st2{fill:#5932E6;}
</style>
<g id="레이어_1">
	<g>
		<path class="st0" d="M48.4,16.1h3.5l0.7,3.1h4.8V23h-4.2v8.7c0,1.8,0.8,2.7,2.3,2.7h2v3.8h-4.3c-3.2,0-4.8-1.7-4.8-5.1V16.1z"/>
		<path class="st0" d="M68.7,19.2c5.8,0,8.6,2.9,8.6,8.8c0,0.8-0.1,1.6-0.2,2.3H64.5c0,2.7,2,4,5.9,4c1.9,0,3.8-0.2,5.7-0.5v3.8
			c-1.7,0.4-3.7,0.5-6.1,0.5c-6.9,0-10.3-3.2-10.3-9.7C59.7,22.3,62.7,19.2,68.7,19.2z M64.5,27h8.1v-0.1c0-2.6-1.3-3.9-4-3.9
			C66.1,23,64.7,24.3,64.5,27z"/>
		<path class="st0" d="M80.9,38.2v-19h3.7l0.6,2.4c1.7-1.6,3.4-2.4,5.3-2.4v3.9c-1.8,0-3.4,0.7-4.8,2.2v12.9H80.9z"/>
		<path class="st0" d="M93.2,38.2v-19h3.7l0.6,2.7c1.7-1.8,3.7-2.7,6.1-2.7s4,0.9,4.9,2.6c1.9-1.7,4-2.6,6.1-2.6
			c4.4,0,6.5,2.4,6.5,7.2v11.8h-4.8V26.2c0-2.1-1-3.2-2.9-3.2c-1.4,0-2.8,0.6-4.1,1.9v13.2h-4.8V26.3c0-2.1-0.9-3.2-2.6-3.2
			c-1.4,0-2.7,0.6-4,1.9v13.2H93.2z"/>
	</g>
	<polygon class="st1" points="36.8,19.7 46.2,14.4 27,2.7 7.7,14.4 7.7,26 27,14.5 	"/>
	<polygon class="st2" points="27,37.9 17.1,32 17.1,24.8 7.7,30.4 7.7,37.7 27,49.4 45.9,37.9 36.8,32.7 	"/>
</g>
<g id="레이어_2">
</g>
</svg>
